<svg width="52" height="51" viewBox="0 0 52 51" fill="none" xmlns="http://www.w3.org/2000/svg">
<rect width="52" height="50.3871" rx="15" fill="#66CECF"/>
<path d="M25.946 19.7001C22.8406 19.7001 20.3357 22.1273 20.3357 25.1365C20.3357 28.1456 22.8406 30.5728 25.946 30.5728C29.0515 30.5728 31.5564 28.1456 31.5564 25.1365C31.5564 22.1273 29.0515 19.7001 25.946 19.7001ZM25.946 28.6708C23.9392 28.6708 22.2986 27.0858 22.2986 25.1365C22.2986 23.1871 23.9343 21.6021 25.946 21.6021C27.9578 21.6021 29.5935 23.1871 29.5935 25.1365C29.5935 27.0858 27.9529 28.6708 25.946 28.6708ZM33.0945 19.4778C33.0945 20.1827 32.5085 20.7458 31.7859 20.7458C31.0584 20.7458 30.4773 20.178 30.4773 19.4778C30.4773 18.7775 31.0632 18.2098 31.7859 18.2098C32.5085 18.2098 33.0945 18.7775 33.0945 19.4778ZM36.8103 20.7647C36.7273 19.0661 36.3269 17.5616 35.0427 16.3219C33.7634 15.0823 32.2107 14.6944 30.4578 14.6092C28.6511 14.5098 23.2361 14.5098 21.4294 14.6092C19.6814 14.6896 18.1287 15.0776 16.8445 16.3172C15.5603 17.5568 15.1648 19.0614 15.0769 20.76C14.9744 22.5106 14.9744 27.7576 15.0769 29.5082C15.1599 31.2068 15.5603 32.7114 16.8445 33.951C18.1287 35.1906 19.6765 35.5786 21.4294 35.6637C23.2361 35.7631 28.6511 35.7631 30.4578 35.6637C32.2107 35.5833 33.7634 35.1953 35.0427 33.951C36.322 32.7114 36.7224 31.2068 36.8103 29.5082C36.9128 27.7576 36.9128 22.5153 36.8103 20.7647ZM34.4763 31.3866C34.0955 32.3139 33.3582 33.0284 32.3962 33.4022C30.9558 33.9557 27.5378 33.828 25.946 33.828C24.3542 33.828 20.9314 33.951 19.4958 33.4022C18.5388 33.0331 17.8015 32.3187 17.4158 31.3866C16.8445 29.9908 16.9763 26.6789 16.9763 25.1365C16.9763 23.594 16.8494 20.2774 17.4158 18.8863C17.7966 17.959 18.5339 17.2446 19.4958 16.8708C20.9363 16.3172 24.3542 16.445 25.946 16.445C27.5378 16.445 30.9607 16.3219 32.3962 16.8708C33.3533 17.2398 34.0906 17.9543 34.4763 18.8863C35.0476 20.2821 34.9158 23.594 34.9158 25.1365C34.9158 26.6789 35.0476 29.9956 34.4763 31.3866Z" fill="black"/>
</svg>
