<svg width="52" height="51" viewBox="0 0 52 51" fill="none" xmlns="http://www.w3.org/2000/svg">
<rect width="52" height="50.3871" rx="15" fill="#66CECF"/>
<path d="M20.875 21.1343V33.814H17.4883V21.1343H20.875ZM17.2773 17.8296C17.2773 17.3374 17.4492 16.9312 17.793 16.6108C18.1367 16.2905 18.5977 16.1304 19.1758 16.1304C19.7461 16.1304 20.2031 16.2905 20.5469 16.6108C20.8984 16.9312 21.0742 17.3374 21.0742 17.8296C21.0742 18.3218 20.8984 18.728 20.5469 19.0483C20.2031 19.3687 19.7461 19.5288 19.1758 19.5288C18.5977 19.5288 18.1367 19.3687 17.793 19.0483C17.4492 18.728 17.2773 18.3218 17.2773 17.8296ZM27.4488 23.8413V33.814H24.0738V21.1343H27.2378L27.4488 23.8413ZM26.9566 27.0288H26.0425C26.0425 26.0913 26.1636 25.2476 26.4058 24.4976C26.648 23.7397 26.9878 23.0952 27.4253 22.564C27.8628 22.0249 28.3823 21.6147 28.9839 21.3335C29.5933 21.0444 30.273 20.8999 31.023 20.8999C31.6167 20.8999 32.1597 20.9858 32.6519 21.1577C33.1441 21.3296 33.5659 21.603 33.9175 21.978C34.2769 22.353 34.5503 22.8491 34.7378 23.4663C34.9331 24.0835 35.0308 24.8374 35.0308 25.728V33.814H31.6323V25.7163C31.6323 25.1538 31.5542 24.7163 31.398 24.4038C31.2417 24.0913 31.0113 23.8726 30.7066 23.7476C30.4097 23.6147 30.0425 23.5483 29.605 23.5483C29.1519 23.5483 28.7573 23.6382 28.4214 23.8179C28.0933 23.9976 27.8198 24.2476 27.6011 24.5679C27.3902 24.8804 27.23 25.2476 27.1206 25.6694C27.0113 26.0913 26.9566 26.5444 26.9566 27.0288Z" fill="black"/>
</svg>
