<svg width="366" height="351" viewBox="0 0 366 351" fill="none" xmlns="http://www.w3.org/2000/svg">
<g clip-path="url(#clip0_30_31)">
<path d="M307.644 351C339.873 351 366 348.21 366 344.769C366 341.328 339.873 338.539 307.644 338.539C275.414 338.539 249.287 341.328 249.287 344.769C249.287 348.21 275.414 351 307.644 351Z" fill="#E6E6E6"/>
<path d="M59.4397 96.6718C59.4584 90.3302 55.649 85.1429 51.1776 85.1429H9.68574C5.285 85.1429 1.48279 90.2444 1.43126 96.4854C1.4153 98.2592 1.69002 100.014 2.23377 101.611C2.77753 103.209 3.57546 104.606 4.56467 105.691C4.81824 105.959 5.01779 106.317 5.14336 106.728C5.26893 107.14 5.31614 107.591 5.28026 108.037C5.23213 108.542 5.20799 109.052 5.20802 109.563V150.266C5.20802 151.765 5.4161 153.248 5.82037 154.632C6.22464 156.017 6.81718 157.274 7.56416 158.334C8.31115 159.393 9.19796 160.234 10.1739 160.807C11.1499 161.38 12.196 161.675 13.2524 161.675H47.3483C49.4817 161.675 51.5278 160.473 53.0365 158.334C54.5451 156.194 55.3926 153.292 55.3926 150.266V109.563C55.3926 109.116 55.3743 108.67 55.3376 108.226C55.3052 107.787 55.3562 107.344 55.4853 106.942C55.6143 106.54 55.8168 106.195 56.0718 105.941C57.11 104.884 57.9565 103.493 58.542 101.881C59.1275 100.27 59.4351 98.4845 59.4397 96.6718Z" fill="#3F3D56"/>
<path d="M57.6429 95.5552C57.4359 93.3473 56.6669 91.3228 55.4807 89.8632C54.2945 88.4035 52.7729 87.6094 51.2025 87.6303H9.6734C8.20532 87.6116 6.77665 88.3037 5.62336 89.5922C4.47007 90.8807 3.66114 92.6886 3.33017 94.7172C3.04679 96.5816 3.18802 98.5255 3.73351 100.269C4.279 102.012 5.20059 103.465 6.36553 104.418C6.70182 104.69 6.96464 105.114 7.11264 105.622C7.26064 106.13 7.28541 106.693 7.18307 107.223C7.0357 107.986 6.96128 108.773 6.96182 109.565V150.264C6.96201 152.344 7.47432 154.359 8.41028 155.96C9.34624 157.562 10.6471 158.649 12.0882 159.035C12.4726 159.137 12.8628 159.188 13.2538 159.188H47.3496C47.9252 159.189 48.4982 159.077 49.0521 158.855C50.372 158.328 51.5344 157.204 52.3624 155.654C53.1904 154.104 53.6386 152.213 53.6389 150.268V109.561C53.639 108.82 53.5737 108.082 53.4446 107.364C53.4094 107.165 53.3913 106.961 53.3907 106.756C53.3909 106.306 53.4774 105.864 53.6409 105.479C53.8044 105.093 54.0387 104.778 54.3188 104.567L54.3215 104.563C55.4514 103.712 56.3734 102.397 56.9662 100.789C57.559 99.1812 57.7949 97.3567 57.6429 95.5552Z" fill="#D27E46"/>
<path opacity="0.2" d="M53.6388 113.46V109.633H49.0521V87.6302H46.354V109.633H31.9192V87.6302H29.2211V109.633H14.7863V87.6302H12.0882V109.633H6.96179V113.46H12.0882V124.94H6.96179V128.766H12.0882V140.246H6.96179V144.073H12.0882V159.035C12.4726 159.137 12.8627 159.188 13.2537 159.188H14.7863V144.073H29.2211V159.188H31.9192V144.073H46.354V159.188H47.3496C47.9252 159.189 48.4982 159.077 49.0521 158.855V144.073H53.6388V140.246H49.0521V128.766H53.6388V124.94H49.0521V113.46H53.6388ZM14.7863 113.46H29.2211V124.94H14.7863V113.46ZM14.7863 140.246V128.766H29.2211V140.246H14.7863ZM46.354 140.246H31.9192V128.766H46.354V140.246ZM46.354 124.94H31.9192V113.46H46.354V124.94Z" fill="black"/>
<path d="M59.2507 0C59.2507 5.36686 58.5053 10.6812 57.0572 15.6395C55.6091 20.5978 53.4866 25.1031 50.8108 28.898C48.1351 32.693 44.9585 35.7033 41.4624 37.7571C37.9664 39.8109 34.2193 40.868 30.4352 40.868C26.6511 40.868 22.9041 39.8109 19.408 37.7571C15.912 35.7033 12.7354 32.693 10.0597 28.898C7.38389 25.1031 5.26137 20.5978 3.81326 15.6395C2.36515 10.6812 1.61981 5.36686 1.61981 0H59.2507Z" fill="#66E695"/>
<path d="M12.1912 7.25466C12.1912 8.32309 11.924 9.18924 11.5944 9.18924C11.2648 9.18924 10.9976 8.32309 10.9976 7.25466C11.0338 6.53168 11.2446 5.84848 11.5944 5.32007C11.9442 5.84848 12.1549 6.53168 12.1912 7.25466Z" fill="#3F3D56"/>
<path d="M42.3706 14.0258C42.3706 15.0942 42.1034 15.9604 41.7738 15.9604C41.4442 15.9604 41.1771 15.0942 41.1771 14.0258C41.2133 13.3028 41.424 12.6196 41.7738 12.0912C42.1236 12.6196 42.3344 13.3028 42.3706 14.0258Z" fill="#3F3D56"/>
<path d="M20.2049 10.1565C20.2049 11.2249 19.9377 12.0911 19.6081 12.0911C19.2785 12.0911 19.0114 11.2249 19.0114 10.1565C19.0476 9.43353 19.2583 8.75033 19.6081 8.22192C19.9579 8.75033 20.1687 9.43353 20.2049 10.1565Z" fill="#3F3D56"/>
<path d="M32.1403 25.3914C32.1403 26.4598 31.8731 27.3259 31.5435 27.3259C31.2139 27.3259 30.9467 26.4598 30.9467 25.3914C30.983 24.6684 31.1937 23.9852 31.5435 23.4568C31.8933 23.9852 32.1041 24.6684 32.1403 25.3914Z" fill="#3F3D56"/>
<path d="M19.3524 23.4568C19.3524 24.5252 19.0852 25.3914 18.7556 25.3914C18.426 25.3914 18.1588 24.5252 18.1588 23.4568C18.195 22.7338 18.4058 22.0506 18.7556 21.5222C19.1054 22.0506 19.3161 22.7338 19.3524 23.4568Z" fill="#3F3D56"/>
<path d="M49.1908 5.32008C49.1908 6.38852 48.9236 7.25466 48.594 7.25466C48.2645 7.25466 47.9973 6.38852 47.9973 5.32008C48.0335 4.5971 48.2443 3.91391 48.594 3.3855C48.9438 3.91391 49.1546 4.5971 49.1908 5.32008Z" fill="#3F3D56"/>
<path d="M38.2785 29.2605C38.2785 30.3289 38.0113 31.1951 37.6817 31.1951C37.3521 31.1951 37.0849 30.3289 37.0849 29.2605C37.1212 28.5375 37.3319 27.8543 37.6817 27.3259C38.0315 27.8543 38.2422 28.5375 38.2785 29.2605Z" fill="#3F3D56"/>
<path d="M30.4352 43.1653C22.3661 43.1524 14.6301 38.6004 8.92436 30.5082C3.21862 22.4159 0.00913351 11.4442 0 0H3.23958C3.23958 5.06517 3.94302 10.0807 5.30972 14.7604C6.67643 19.44 8.67965 23.692 11.205 27.2736C13.7303 30.8552 16.7284 33.6963 20.0279 35.6347C23.3274 37.573 26.8638 38.5707 30.4352 38.5707C34.0066 38.5707 37.543 37.573 40.8425 35.6347C44.142 33.6963 47.1401 30.8552 49.6654 27.2736C52.1908 23.692 54.194 19.44 55.5607 14.7604C56.9274 10.0807 57.6308 5.06517 57.6308 0H60.8704C60.8613 11.4442 57.6518 22.4159 51.9461 30.5082C46.2403 38.6004 38.5043 43.1523 30.4352 43.1653Z" fill="#3F3D56"/>
<path d="M100.54 14.819H91.0015V28.3464H100.54V14.819Z" fill="#3F3D56"/>
<path d="M194.012 20.9062H117.231V22.259H194.012V20.9062Z" fill="#3F3D56"/>
<path d="M100.54 116.646H91.0015V130.173H100.54V116.646Z" fill="#3F3D56"/>
<path d="M194.012 122.733H117.231V124.086H194.012V122.733Z" fill="#3F3D56"/>
<path d="M100.54 217.764H91.0015V231.292H100.54V217.764Z" fill="#3F3D56"/>
<path d="M194.012 223.852H117.231V225.204H194.012V223.852Z" fill="#3F3D56"/>
<path d="M301.555 92.8958L289.372 106.516L263.554 93.6475C263.554 93.6475 254.776 79.6444 249.813 90.0741C248.113 93.6461 259.247 100.245 260.298 100.859C262.924 102.392 288.081 121.966 290.547 119.398C293.012 116.83 306.882 103.841 306.882 103.841L301.555 92.8958Z" fill="#A0616A"/>
<path d="M343.146 69.6615C331.598 63.5418 320.614 60.6464 311.708 69.6615V40.566C311.708 37.6383 312.114 34.7393 312.904 32.0345C313.694 29.3297 314.852 26.872 316.312 24.8018C317.771 22.7316 319.504 21.0895 321.411 19.9691C323.318 18.8488 325.362 18.2721 327.427 18.2721C329.491 18.2721 331.535 18.8487 333.442 19.9691C335.349 21.0895 337.082 22.7317 338.542 24.8018C340.001 26.872 341.159 29.3297 341.949 32.0345C342.739 34.7393 343.146 37.6383 343.146 40.566L343.146 69.6615Z" fill="#2F2E41"/>
<path d="M314.131 133.221L313.187 142.589C313.187 142.589 310.828 152.626 313.187 171.361L275.208 318.235L303.279 329.61L317.197 249.315L336.777 188.09L334.889 257.679L324.982 331.952L354.233 330.279L362.757 202.923C364.135 182.795 361.673 162.513 355.629 144.197C353.265 137.075 350.722 131.462 348.415 130.647C341.495 128.203 314.131 133.221 314.131 133.221Z" fill="#2F2E41"/>
<path d="M278.746 317.231L269.074 331.952C269.074 331.952 250.439 345.669 263.649 347.342C276.859 349.015 281.341 341.654 281.341 341.654C281.341 341.654 297.854 339.982 297.618 336.636C297.382 333.29 296.202 322.25 296.202 322.25L278.746 317.231Z" fill="#2F2E41"/>
<path d="M331.233 320.781V331.152C331.233 331.152 331.469 335.502 331.233 336.505C330.997 337.509 327.459 349.888 339.254 347.211C351.048 344.535 346.33 334.163 346.33 334.163L343.5 319.108L331.233 320.781Z" fill="#2F2E41"/>
<path d="M327.282 60.9551C333.829 60.9551 339.136 53.4282 339.136 44.1433C339.136 34.8583 333.829 27.3314 327.282 27.3314C320.735 27.3314 315.428 34.8583 315.428 44.1433C315.428 53.4282 320.735 60.9551 327.282 60.9551Z" fill="#A0616A"/>
<path d="M335.479 53.4275C335.479 53.4275 333.828 75.5087 335.479 79.5235C337.131 83.5383 318.731 75.5087 318.731 75.5087C318.731 75.5087 322.741 60.4534 321.326 54.4312C319.91 48.409 335.479 53.4275 335.479 53.4275Z" fill="#A0616A"/>
<path d="M344.915 116.995L348.689 131.716L313.541 137.403C313.541 137.403 309.767 136.399 309.767 132.05C309.767 127.701 305.756 112.311 305.756 112.311C305.756 112.311 295.935 101.021 291.217 98.0095C289.507 96.9188 292.065 97.3692 293.504 92.7388C293.936 91.347 294.452 89.8783 295.016 88.3895C295.476 87.1683 295.971 85.9304 296.479 84.7093C297.094 83.2205 297.729 81.7551 298.344 80.3599C300.208 76.1411 301.909 72.5947 302.454 71.1594C304.105 66.8101 319.629 66.422 319.629 66.422C324.069 70.3832 336.895 71.1594 336.895 71.1594C336.895 71.1594 345.717 76.3953 349.392 80.3599C349.659 80.6443 344.915 116.995 344.915 116.995Z" fill="#E6E6E6"/>
<path d="M337.285 23.9614V23.5622L336.95 23.5886C335.049 21.536 332.844 20.1242 330.502 19.4604C328.159 18.7965 325.741 18.8979 323.43 19.757C325.645 20.5872 327.705 22.0965 329.464 24.1784L318.102 25.0736L313.306 40.1882H316.552L319.168 33.3866V40.1882H330.144L330.89 34.8981L332.963 40.1882H335.119C335.132 40.5653 335.153 40.9398 335.153 41.3217L333.022 70.4172L343.146 64.3714V41.3217C343.148 37.9903 342.622 34.7007 341.608 31.696C340.593 28.6913 339.116 26.048 337.285 23.9614Z" fill="#2F2E41"/>
<path d="M353.171 100.936L352.464 127.366L350.577 178.554C350.577 178.554 353.171 200.636 346.566 200.301C339.961 199.967 344.915 174.205 344.915 174.205L343.028 133.723L344.915 105.285L353.171 100.936Z" fill="#A0616A"/>
<path d="M355.059 115.322C355.059 118.333 343.146 117.497 343.146 117.497L336.895 71.1594C336.895 71.1594 345.717 76.3953 349.392 80.3599C350.257 81.6325 350.965 83.1029 351.485 84.7093C351.766 85.7832 352.032 87.0278 352.285 88.3895C352.535 89.7411 352.768 91.2098 352.987 92.7388C354.017 100.196 354.709 107.739 355.059 115.322Z" fill="#E6E6E6"/>
<path d="M30.1144 222.813L12.058 220.161C12.1967 218.801 12.0902 217.414 11.7484 216.128C11.4065 214.843 10.8405 213.701 10.1032 212.81C9.36589 211.918 8.48132 211.307 7.53213 211.032C6.58294 210.757 5.6001 210.827 4.67538 211.237C3.75067 211.647 2.91425 212.382 2.24427 213.375C1.57429 214.367 1.0926 215.584 0.84418 216.912C0.595761 218.24 0.58873 219.636 0.823731 220.969C1.05873 222.302 1.5281 223.529 2.18801 224.535C1.51753 225.562 1.04528 226.817 0.816935 228.179C0.588586 229.54 0.611865 230.963 0.884523 232.308C1.15718 233.653 1.66999 234.876 2.37334 235.857C3.0767 236.839 3.94681 237.547 4.8995 237.912C5.8522 238.278 6.85524 238.288 7.81161 237.943C8.76798 237.597 9.64531 236.908 10.3588 235.941C11.0722 234.973 11.5976 233.762 11.8841 232.422C12.1707 231.083 12.2087 229.661 11.9945 228.295L30.1144 225.933V222.813Z" fill="#CCCCCC"/>
<path d="M48.4759 240.414C55.5742 242.889 62.725 235.749 63.0951 225.395C63.1053 225.108 63.1105 224.819 63.1105 224.528C63.1105 224.237 63.1054 223.948 63.0951 223.661C62.725 213.307 55.5742 206.166 48.4759 208.642L24.3951 217.04C23.7013 217.039 23.0143 217.232 22.3732 217.608C21.7321 217.984 21.1495 218.535 20.6587 219.231C20.168 219.926 19.7786 220.752 19.513 221.661C19.2474 222.57 19.1107 223.544 19.1107 224.528C19.1107 225.512 19.2474 226.486 19.513 227.395C19.7786 228.304 20.168 229.13 20.6587 229.825C21.1495 230.52 21.7321 231.072 22.3732 231.448C23.0143 231.823 23.7013 232.016 24.3951 232.015L48.4759 240.414Z" fill="#6C63FF"/>
</g>
<defs>
<clipPath id="clip0_30_31">
<rect width="366" height="351" fill="white"/>
</clipPath>
</defs>
</svg>
