<svg width="52" height="51" viewBox="0 0 52 51" fill="none" xmlns="http://www.w3.org/2000/svg">
<rect width="52" height="50.3871" rx="15" fill="#66CECF"/>
<path d="M38.4302 20.407C38.446 20.6221 38.446 20.8374 38.446 21.0526C38.446 27.6159 33.2906 35.1784 23.868 35.1784C20.9651 35.1784 18.2684 34.3637 16 32.9497C16.4125 32.9957 16.809 33.0111 17.2373 33.0111C19.6326 33.0111 21.8375 32.2272 23.5983 30.89C21.3458 30.8438 19.4581 29.4143 18.8077 27.4469C19.125 27.4929 19.4422 27.5237 19.7754 27.5237C20.2354 27.5237 20.6955 27.4622 21.1237 27.3546C18.776 26.8935 17.0152 24.8953 17.0152 22.482V22.4206C17.6973 22.7895 18.4905 23.02 19.3312 23.0508C17.9511 22.1592 17.0469 20.6375 17.0469 18.916C17.0469 17.9937 17.3007 17.1483 17.7449 16.4105C20.2671 19.4232 24.0583 21.3907 28.3096 21.6059C28.2303 21.237 28.1827 20.8528 28.1827 20.4685C28.1827 17.7324 30.4669 15.5037 33.3064 15.5037C34.7816 15.5037 36.1141 16.1031 37.05 17.0715C38.208 16.8563 39.3184 16.4413 40.302 15.8726C39.9212 17.0254 39.1122 17.9938 38.0494 18.6086C39.0805 18.501 40.0799 18.2243 40.9999 17.8401C40.302 18.8238 39.4295 19.6999 38.4302 20.407Z" fill="black"/>
</svg>
