<svg width="1300" height="26" viewBox="0 0 1438 26" fill="none" xmlns="http://www.w3.org/2000/svg">
<path fill-rule="evenodd" clip-rule="evenodd" d="M1438 10.6139L1404 13.5759C1370 16.538 1301 22.462 1233 23.038C1164 23.6139 1096 18.9241 1027 16.538C959 14.1519 890 14.1519 822 17.1139C753 20.0759 685 26 616 26C548 26 479 20.0759 411 16.538C342 13 274 11.8481 205 12.4241C137 13 68 15.3861 34 16.538L0 17.6899V0H34C68 0 137 0 205 0C274 0 342 0 411 0C479 0 548 0 616 0C685 0 753 0 822 0C890 0 959 0 1027 0C1096 0 1164 0 1233 0C1301 0 1370 0 1404 0H1438V10.6139Z" fill="#090C1D"/>
</svg>
